HIERARCHY
ROOT Hips
{
    OFFSET 0.000000 0.000000 0.000000
    CHANNELS 6 Xposition Yposition Zposition Zrotation Yrotation Xrotation
    JOINT LeftUpLeg
    {
        OFFSET 7.693656 -10.129610 4.737288
        CHANNELS 3 Zrotation Yrotation Xrotation
        JOINT LeftLeg
        {
            OFFSET 13.818113 -37.964970 0.000000
            CHANNELS 3 Zrotation Yrotation Xrotation
            JOINT LeftFoot
            {
                OFFSET 14.462082 -39.734261 0.000000
                CHANNELS 3 Zrotation Yrotation Xrotation
                JOINT LeftToeBase
                {
                    OFFSET 0.889783 -2.444646 13.109402
                    CHANNELS 3 Zrotation Yrotation Xrotation
                    End Site
                    {
                        OFFSET 0.000000 0.000000 0.000000
                    }
                }
            }
        }
    }
    JOINT RightUpLeg
    {
        OFFSET -7.368877 -10.129610 4.737288
        CHANNELS 3 Zrotation Yrotation Xrotation
        JOINT RightLeg
        {
            OFFSET -14.351057 -39.429237 0.000000
            CHANNELS 3 Zrotation Yrotation Xrotation
            JOINT RightFoot
            {
                OFFSET -14.496286 -39.828186 0.000000
                CHANNELS 3 Zrotation Yrotation Xrotation
                JOINT RightToeBase
                {
                    OFFSET -0.929802 -2.554599 13.338564
                    CHANNELS 3 Zrotation Yrotation Xrotation
                    End Site
                    {
                        OFFSET 0.000000 0.000000 0.000000
                    }
                }
            }
        }
    }
    JOINT Spine
    {
        OFFSET 0.159567 11.489684 -1.091514
        CHANNELS 3 Zrotation Yrotation Xrotation
        JOINT Spine1
        {
            OFFSET 0.320150 11.564529 -0.241298
            CHANNELS 3 Zrotation Yrotation Xrotation
            JOINT Neck1
            {
                OFFSET -0.305757 9.856478 0.970950
                CHANNELS 3 Zrotation Yrotation Xrotation
                JOINT Head
                {
                    OFFSET 0.587413 9.941821 -0.699736
                    CHANNELS 3 Zrotation Yrotation Xrotation
                    End Site
                    {
                        OFFSET 0.000000 0.000000 0.000000
                    }
                }
            }
            JOINT LeftShoulder
            {
                OFFSET 0.000000 0.000000 0.000000
                CHANNELS 3 Zrotation Yrotation Xrotation
                JOINT LeftArm
                {
                    OFFSET 18.978788 6.778303 -1.756594
                    CHANNELS 3 Zrotation Yrotation Xrotation
                    JOINT LeftForeArm
                    {
                        OFFSET 28.126045 -0.000000 -0.000000
                        CHANNELS 3 Zrotation Yrotation Xrotation
                        JOINT LeftHand
                        {
                            OFFSET 19.662607 -0.000000 -0.000000
                            CHANNELS 3 Zrotation Yrotation Xrotation
                            End Site
                            {
                                OFFSET 0.000000 0.000000 0.000000
                            }
                        }
                    }
                }
            }
            JOINT RightShoulder
            {
                OFFSET 0.000000 0.000000 0.000000
                CHANNELS 3 Zrotation Yrotation Xrotation
                JOINT RightArm
                {
                    OFFSET -17.704226 7.755688 -2.284007
                    CHANNELS 3 Zrotation Yrotation Xrotation
                    JOINT RightForeArm
                    {
                        OFFSET -29.587381 -0.000000 -0.000000
                        CHANNELS 3 Zrotation Yrotation Xrotation
                        JOINT RightHand
                        {
                            OFFSET -19.440273 -0.000000 -0.000000
                            CHANNELS 3 Zrotation Yrotation Xrotation
                            End Site
                            {
                                OFFSET 0.000000 0.000000 0.000000
                            }
                        }
                    }
                }
            }
        }
    }
}
MOTION
Frames: 17
Frame Time: 0.016667
18.386589 94.396164 7.475082 -169.371124 -88.870651 179.676331 -16.729269 5.495639 6.914617 -1.301918 1.208509 20.542780 0.444213 2.003917 -0.864814 0.250100 0.000000 -75.440323 16.789524 4.463736 -30.480272 2.673948 0.068038 6.937096 -0.114379 -2.184234 10.591700 -1.506401 0.000000 -34.109810 4.128828 -7.096699 -6.677646 -7.465216 -3.817947 0.882260 4.727561 -8.857154 -4.161302 0.000000 0.000000 0.000000 -6.386487 2.406453 1.301203 -56.616096 -18.481592 13.826361 -2.554801 -47.866219 -0.016582 6.089426 0.394697 0.013435 19.451380 -8.086046 0.739157 63.205334 -7.128420 -15.964503 4.229399 8.016836 0.009436 -2.284477 4.635048 -0.098130 
16.298737 94.703026 7.187760 -129.233047 -88.829475 139.588654 -15.566584 6.179730 4.859429 -0.731645 1.555677 25.332914 0.459908 1.659045 3.333531 0.288000 0.000001 -78.506699 17.416197 5.004706 -30.017941 2.705297 -0.133470 8.897095 -0.185459 -2.544318 10.056899 -1.606101 -0.000000 -32.048817 5.247729 -7.060728 -7.047719 -7.394244 -3.859148 0.899927 4.563904 -8.521255 -4.154097 0.000000 0.000000 0.000000 -6.790111 2.746984 1.241020 -58.512932 -17.121494 13.533152 -2.681504 -44.687313 -0.015363 6.311376 0.329629 0.011093 19.330627 -7.771366 0.664911 63.357552 -6.397901 -16.002571 4.246103 7.541910 0.009260 -2.568768 4.585103 -0.108628 
14.317343 95.028915 6.853081 -116.774460 -88.229996 127.178520 -14.567255 7.012611 2.245810 -0.220877 1.882222 30.652424 0.602868 1.499977 7.882596 0.247101 0.000000 -77.245796 18.218037 5.575424 -29.405304 2.736968 -0.271913 10.648377 -0.285770 -2.960821 8.824198 -1.679500 0.000000 -29.793299 6.110616 -6.817879 -7.251395 -7.349937 -3.779785 0.886584 4.490386 -8.096577 -4.142861 0.000000 0.000000 0.000000 -6.831622 3.062679 1.192342 -60.520264 -15.750635 12.908534 -2.773625 -41.064548 -0.014539 6.618235 0.376801 0.015107 19.280104 -7.320260 0.611318 63.753620 -5.431452 -15.943050 4.244390 7.181817 0.008989 -2.769291 4.529937 -0.115324 
12.454403 95.356995 6.470910 -110.099632 -87.739380 120.534920 -13.795678 7.628063 -0.778041 0.234128 2.132024 36.325752 0.881104 2.071174 11.960053 0.338899 -0.000000 -71.363998 18.993803 5.945783 -28.569719 2.767394 -0.346656 11.945460 -0.411620 -3.414582 7.187056 -1.714098 0.000000 -27.561909 6.657425 -6.627451 -7.301751 -7.325502 -3.713013 0.859481 4.523399 -7.628747 -4.128150 0.000000 0.000000 0.000000 -6.590936 3.231052 1.187936 -62.475986 -14.417802 12.042540 -2.838585 -37.192612 -0.013929 6.895348 0.572122 0.028508 19.329226 -6.826445 0.580623 64.370338 -4.234003 -15.706766 4.217150 6.995735 0.008651 -2.866269 4.487976 -0.118116 
10.702121 95.676659 6.062294 -103.051537 -87.421089 113.494560 -13.288908 7.929229 -4.105928 0.601940 2.328798 42.144913 1.254022 3.847637 14.776165 0.878800 -0.000000 -62.513599 19.694500 6.037693 -27.508724 2.809424 -0.351348 12.659144 -0.541653 -3.844139 5.466087 -1.705500 0.000000 -25.473299 6.929402 -6.522532 -7.224746 -7.318738 -3.674612 0.818175 4.626854 -7.148034 -4.108320 0.000000 0.000000 0.000000 -6.227692 3.242369 1.238994 -64.223152 -13.150066 11.111161 -2.885306 -33.304958 -0.013331 7.009475 0.940837 0.052421 19.444292 -6.317570 0.572016 65.164940 -2.846950 -15.274624 4.168905 7.034348 0.008344 -2.831828 4.497491 -0.116902 
9.041521 95.984657 5.644570 -93.895203 -87.256119 104.321350 -13.074752 7.867201 -7.606234 0.892767 2.509742 47.844986 1.688147 6.996319 15.988795 2.010300 0.000000 -53.495312 20.283512 5.807998 -26.306742 2.865072 -0.300400 12.844455 -0.651080 -4.155901 3.877081 -1.648201 -0.000000 -23.632608 6.966713 -6.492989 -7.055865 -7.325558 -3.660935 0.763979 4.764190 -6.696563 -4.080992 0.000000 0.000000 0.000000 -5.878924 3.119863 1.338854 -65.661552 -11.943134 10.321631 -2.925321 -29.626879 -0.012587 6.857219 1.468999 0.083867 19.599871 -5.828963 0.577857 66.073158 -1.324125 -14.555565 4.103864 7.350858 0.008144 -2.668519 4.581698 -0.112384 
7.447814 96.282539 5.230496 -82.713165 -87.180054 93.107681 -13.158806 7.462298 -11.143912 1.128219 2.695999 53.146732 2.164394 11.164488 15.658634 3.509701 -0.000000 -46.242619 20.724155 5.316956 -25.054289 2.925112 -0.214356 12.649606 -0.729496 -4.325059 2.526316 -1.558299 -0.000000 -22.124506 6.801405 -6.490634 -6.839537 -7.340535 -3.650728 0.700162 4.901812 -6.297822 -4.040783 0.000000 0.000000 0.000000 -5.637779 2.925711 1.468006 -66.757004 -10.769821 9.848099 -2.967962 -26.350296 -0.011615 6.406160 2.099077 0.114455 19.771944 -5.372996 0.587141 67.028557 0.269753 -13.469423 4.026185 7.980577 0.008084 -2.403990 4.746431 -0.105057 
5.906328 96.574303 4.862989 -59.225376 -86.824303 69.593307 -13.367915 6.022540 -14.606406 1.319368 2.948915 58.055565 2.649397 15.516335 14.023325 4.846003 0.000000 -41.050312 21.174456 3.788378 -23.937218 3.059389 -0.057771 12.033908 -0.756355 -4.327165 1.453271 -1.457700 0.000000 -20.850000 6.644875 -6.809828 -6.662045 -7.337124 -3.796616 0.632019 4.961389 -5.931371 -3.963297 0.000000 0.000000 0.000000 -5.624892 2.639985 1.637014 -67.549683 -9.630804 9.760178 -3.011036 -23.589970 -0.010639 5.716980 2.742559 0.134879 19.858545 -5.039048 0.560976 67.962402 1.879691 -12.019003 3.944930 8.927374 0.008180 -2.083718 4.980903 -0.095927 
4.383120 96.855690 4.462954 -51.058662 -86.724579 61.415852 -13.886518 5.337055 -17.918446 1.459227 3.151154 61.801403 3.066016 19.273525 11.602427 5.631505 -0.000000 -37.459499 21.318455 3.265581 -22.698622 3.084686 0.050070 11.560743 -0.796655 -4.353150 0.527016 -1.361000 -0.000001 -20.058100 6.169254 -6.641504 -6.461605 -7.356706 -3.695626 0.561103 5.050602 -5.600156 -3.873657 0.000000 0.000000 0.000000 -5.640541 2.555985 1.753359 -68.058716 -8.388250 10.027157 -3.059136 -21.506998 -0.009337 4.932451 3.294820 0.140934 20.006725 -4.567806 0.549562 68.866722 3.460994 -10.189512 3.847913 10.165958 0.008280 -1.752431 5.244389 -0.085390 
2.873333 97.127502 4.066045 -44.493309 -86.730919 54.876907 -14.514099 4.708574 -21.052402 1.548714 3.315392 64.522400 3.343885 21.677370 8.858849 5.642903 0.000001 -35.076534 21.340351 2.915365 -21.443991 3.081265 0.155480 11.049794 -0.838813 -4.395268 -0.302512 -1.272800 0.000000 -19.483500 5.572659 -6.366469 -6.312935 -7.374525 -3.539614 0.504424 5.120512 -5.292356 -3.770998 0.000000 0.000000 0.000000 -5.736504 2.660911 1.834659 -68.357834 -7.100616 10.554507 -3.102136 -20.084023 -0.008161 4.234589 3.687572 0.136305 20.139997 -4.074680 0.515103 69.685287 5.027477 -7.949297 3.740787 11.673485 0.008335 -1.472438 5.484357 -0.075549 
1.373632 97.384644 3.670666 -39.356678 -86.893860 49.788864 -15.210514 4.216316 -23.958246 1.573624 3.417787 66.133499 3.435905 22.461243 6.260713 5.048298 -0.000000 -33.556301 21.265945 2.739423 -20.125572 3.056583 0.259494 10.471121 -0.878492 -4.420541 -1.085497 -1.181900 -0.000000 -18.987297 4.857227 -5.995660 -6.197915 -7.388735 -3.333071 0.467907 5.183738 -5.001003 -3.667806 0.000000 0.000000 0.000000 -5.868073 2.997175 1.875476 -68.498634 -5.776645 11.195079 -3.131874 -19.296127 -0.007214 3.760279 3.905750 0.128779 20.257919 -3.555889 0.456135 70.399734 6.617446 -5.391747 3.624559 13.370542 0.008330 -1.249308 5.687328 -0.066906 
-0.114000 97.621086 3.284877 -35.612091 -87.211960 46.076225 -15.917836 3.895268 -26.581244 1.524378 3.449262 66.617622 3.350701 21.840014 4.133961 4.204699 -0.000000 -32.623802 21.149302 2.676928 -18.674171 3.029368 0.368930 9.732237 -0.902247 -4.370063 -1.811202 -1.082000 -0.000000 -18.437809 4.077044 -5.544793 -6.081313 -7.398862 -3.084805 0.430082 5.239964 -4.653938 -3.545331 0.000000 0.000000 0.000000 -6.015924 3.510940 1.888420 -68.524452 -4.370984 11.775167 -3.142416 -19.105898 -0.006456 3.549751 3.984368 0.124454 20.329933 -2.944391 0.381444 71.016235 8.183215 -2.812823 3.504684 15.214344 0.008307 -1.011832 5.860866 -0.056361 
-1.590603 97.831535 2.917111 -32.990070 -87.658653 43.447529 -16.614481 3.702541 -28.882719 1.401378 3.412483 66.022011 3.154906 20.408302 2.549324 3.409900 -0.000000 -31.870108 21.025824 2.602177 -17.086985 3.016256 0.488031 8.782803 -0.888928 -4.146753 -2.449693 -0.965700 0.000001 -17.801600 3.273533 -5.035157 -5.937022 -7.403514 -2.805767 0.390265 5.295106 -4.274695 -3.417667 0.000000 0.000000 0.000000 -6.178267 4.170320 1.880540 -68.467339 -2.914799 12.235251 -3.136128 -19.405476 -0.005772 3.545564 3.972356 0.124229 20.349323 -2.270143 0.295607 71.515305 9.736357 -0.233315 3.383060 17.198505 0.008291 -0.754711 6.009624 -0.043816 
-3.057577 98.010902 2.577182 -31.344383 -88.179306 41.737797 -17.283129 3.553604 -30.824661 1.215743 3.315501 64.444572 2.940607 18.861303 1.350356 2.789100 0.000000 -30.975597 20.919371 2.391896 -15.393944 3.027258 0.616159 7.623086 -0.822990 -3.678528 -2.964476 -0.833100 0.000001 -17.146400 2.494335 -4.486117 -5.744446 -7.400175 -2.506081 0.355934 5.350894 -3.936738 -3.308044 0.000000 0.000000 0.000000 -6.367588 4.929819 1.855295 -68.352646 -1.452855 12.569484 -3.119011 -20.066422 -0.005068 3.622463 3.925466 0.125706 20.314922 -1.616146 0.203685 71.869446 11.331511 2.403260 3.262296 19.289289 0.008331 -0.509157 6.162382 -0.031371 
-4.518348 98.154816 2.270511 -30.473948 -88.722061 40.742363 -17.909876 3.350514 -32.376122 0.983436 3.165348 62.005508 2.783421 17.720003 0.310525 2.347100 0.000000 -30.140600 20.829884 1.965450 -13.647382 3.061505 0.747669 6.313290 -0.701838 -2.944700 -3.341405 -0.689100 -0.000000 -16.622000 1.767746 -3.911456 -5.511365 -7.387900 -2.194067 0.308868 5.400687 -3.597384 -3.193308 0.000000 0.000000 0.000000 -6.585973 5.699987 1.827171 -68.204224 0.034127 12.769561 -3.098819 -20.970457 -0.004340 3.651489 3.888469 0.125785 20.199276 -0.947768 0.112609 72.090675 12.874393 4.873815 3.143293 21.510204 0.008442 -0.254135 6.331218 -0.017627 
-5.981602 98.258049 2.000551 -30.876768 -89.189644 41.001816 -18.449879 3.012979 -33.569839 0.721561 2.963025 58.843193 2.712168 17.137400 -0.778831 2.017601 0.000000 -29.390707 20.764544 1.352085 -11.914618 3.111334 0.877004 4.927262 -0.545905 -2.032987 -3.593676 -0.547500 0.000000 -16.353201 1.136877 -3.334524 -5.284254 -7.364622 -1.882925 0.266420 5.442537 -3.331191 -3.093917 0.000000 0.000000 0.000000 -6.833465 6.458178 1.793013 -68.049652 1.504777 12.858410 -3.080459 -21.981050 -0.003650 3.554768 3.882061 0.122566 20.006004 -0.352437 0.022127 72.167236 14.419974 7.243954 3.027796 23.803833 0.008608 -0.053592 6.526390 -0.006283 
-7.452837 98.316086 1.763023 -34.024307 -89.189644 44.028606 -18.852751 2.502817 -34.451527 0.448731 2.700806 55.061493 2.712971 16.961491 -1.905182 1.754200 0.000000 -28.930714 20.738596 0.623455 -10.245990 3.164060 0.995048 3.541860 -0.384037 -1.069947 -3.771732 -0.418200 0.000001 -16.395706 0.627582 -2.794508 -5.110843 -7.331924 -1.593751 0.229041 5.477356 -3.117014 -3.001510 0.000000 0.000000 0.000000 -7.088176 7.174734 1.759287 -67.914299 2.948808 12.835807 -3.067583 -22.983833 -0.003079 3.328284 3.904298 0.115847 19.740103 0.176218 -0.068968 72.116249 15.935117 9.401781 2.915309 26.136269 0.008782 0.086039 6.735226 0.002160 
